<svg  viewBox="0 0 531.36 487.78" class="ng-star-inserted">
    <defs >
        <style >.cls-1{fill:inherit;}</style>
    </defs>
    <title >ISO 22000</title>
    <g  id="katman_2" data-name="katman 2">
        <g  id="Layer_1" data-name="Layer 1">
            <polygon 
                points="137.11 153.16 137.11 110.54 25.88 110.54 25.88 153.16 51.4 153.16 51.4 244.32 25.88 244.32 25.88 286.93 137.11 286.93 137.11 244.32 111.59 244.32 111.59 153.16 137.11 153.16"
                class="cls-1"></polygon>
            <path 
                d="M259.86,178.22c-6.87-2-42.25-12.12-48.37-14.12s-11.12-4.87-11.12-8.5,5.63-7.5,17-7.5c35.88,0,53.11,22.13,53.11,22.13s1.94,2.59,2.59,3.51h34.61V113.37H270.52v11c-2.84-2-23.79-15.63-56.28-15.63-42.87,0-66.75,22.25-66.75,55.5s30.13,47,38.5,50.5,41.13,12.75,55.13,17.13,19.12,7.5,19.12,9.75-6.12,8.13-23.62,8.13c-30.48,0-46.18-18-48.94-21.46v0c-.88-1.17-1.9-2.56-2.25-3.09s-1.34-1.95-2-2.88H148.82v64.46h38.86V273.28c4.52,3,27.66,17.45,55.44,17.45,31,0,70.5-13.5,70.5-55.62S266.74,180.22,259.86,178.22Z"
                class="cls-1"></path>
            <path 
                d="M412.27,108.13c-51.68,0-94.06,25.84-94.06,91.79s46,90.66,94.29,90.66,93.83-24.48,93.83-90S460.78,108.13,412.27,108.13Zm.45,138.49c-17.68,0-29-4.08-29-46.92s8.39-47.37,29.69-47.37c12.92,0,28.56.91,28.56,46S430.41,246.62,412.73,246.62Z"
                class="cls-1"></path>
            <path 
                d="M100,91.09a194.67,194.67,0,0,1,42.28-45,171.32,171.32,0,0,0,21.06,13.29C150.94,73.21,139.83,88.52,138,91.09h7.44c4.46-6,13.7-18.12,23.44-28.86A193,193,0,0,0,202.63,75c-3.14,6.67-5.52,12.5-6.91,16.08h6.46c1.49-3.7,3.66-8.85,6.38-14.55a215.78,215.78,0,0,0,47,6.06v8.49h6V82.62a216.89,216.89,0,0,0,46.72-5.37c2.56,5.41,4.62,10.3,6,13.84h6.46c-1.34-3.45-3.58-9-6.54-15.3a194.57,194.57,0,0,0,34.4-12.44c9.37,10.45,18.12,21.93,22.43,27.74h7.44c-1.78-2.48-12.32-17-24.29-30.5A172.3,172.3,0,0,0,377.53,46.1a194.64,194.64,0,0,1,42.28,45H427a198.86,198.86,0,0,0-334.25,0H100ZM205.31,69.52a187.88,187.88,0,0,1-32.16-11.87c1.38-1.43,2.76-2.82,4.12-4.14,13.91-13.41,36.78-28.14,41.79-31.31a74.07,74.07,0,0,0,13.23,5.63c-3.67,4.81-10.87,14.57-18.71,27C210.54,59.6,207.76,64.67,205.31,69.52Zm50.23,7.08A210.17,210.17,0,0,1,211.28,71c2.22-4.34,4.7-8.81,7.38-13,9-14.27,17.19-25,19.9-28.46a92.44,92.44,0,0,0,17,2.34V76.59Zm6,0V31.94a93.68,93.68,0,0,0,16.86-1.8c3.1,4,10.87,14.34,19.43,27.85,2.82,4.45,5.41,9.16,7.72,13.72A211.22,211.22,0,0,1,261.54,76.62Zm50-6.33a177.25,177.25,0,0,0-8.67-15.51C295.46,43,288.59,33.65,284.77,28.6a77,77,0,0,0,14.12-5.46c7,4.51,27.48,18,40.31,30.37,1.7,1.64,3.43,3.4,5.15,5.22A189.37,189.37,0,0,1,311.56,70.29Zm60.94-27.94A167.34,167.34,0,0,1,350,56c-2.21-2.37-4.45-4.67-6.65-6.8-12-11.57-29.87-23.71-38.62-29.42a54.94,54.94,0,0,0,8.12-6.38A192.4,192.4,0,0,1,372.51,42.35ZM259.9,6a192.76,192.76,0,0,1,46,5.55c-11.19,9.09-28,14.42-46,14.42s-34.83-5.31-46-14.42A192.76,192.76,0,0,1,259.9,6Zm-53,7.39a53.86,53.86,0,0,0,6.48,5.29c-7.93,5.1-27.47,18.13-40.3,30.5-1.85,1.78-3.71,3.68-5.57,5.64A166.57,166.57,0,0,1,147.3,42.35,192.37,192.37,0,0,1,206.94,13.39Z"
                class="cls-1"></path>
            <path 
                d="M419.82,306.92a194.66,194.66,0,0,1-41.24,44.18,171.92,171.92,0,0,0-24.36-15.27c10.38-11.71,19.69-24.19,23.13-28.91h-7.47c-4.61,6.15-12.67,16.58-21.24,26.15a194.3,194.3,0,0,0-34.4-12.45c2.54-5.44,4.55-10.26,5.91-13.7h-6.48c-1.37,3.35-3.2,7.61-5.4,12.25a217,217,0,0,0-46.72-5.37v-6.88h-6v6.91a215.87,215.87,0,0,0-47,6c-2.34-4.92-4.29-9.43-5.73-13h-6.48c1.43,3.6,3.57,8.73,6.28,14.49a192.76,192.76,0,0,0-33.77,12.77c-8.94-9.86-17.46-20.87-22.25-27.26h-7.47c3.56,4.88,13.38,18.06,24.2,30.11a171.29,171.29,0,0,0-22.11,14.08A194.61,194.61,0,0,1,100,306.92H92.78a198.86,198.86,0,0,0,334.24,0h-7.21ZM311.57,326.13a189.09,189.09,0,0,1,32.8,11.57c-1.73,1.82-3.45,3.58-5.16,5.23-12.79,12.33-33.17,25.78-40.26,30.33a76.11,76.11,0,0,0-14.14-5.47c3.82-5.05,10.67-14.42,18.09-26.14A177,177,0,0,0,311.57,326.13Zm-50-6.33a211.35,211.35,0,0,1,44,4.9c-2.31,4.56-4.91,9.27-7.73,13.72-8.55,13.5-16.3,23.81-19.42,27.84a94.42,94.42,0,0,0-16.87-1.78V319.8Zm-6,0v44.72a92.93,92.93,0,0,0-17,2.32c-2.73-3.51-10.86-14.19-19.88-28.44-2.68-4.23-5.16-8.7-7.38-13A210.24,210.24,0,0,1,255.54,319.83Zm-50.23,7.07c2.45,4.85,5.23,9.92,8.28,14.74,7.84,12.38,15,22.13,18.71,26.95a73.31,73.31,0,0,0-13.23,5.63c-5-3.18-27.89-17.9-41.79-31.3-1.37-1.32-2.74-2.71-4.13-4.14A187.48,187.48,0,0,1,205.31,326.9Zm-59.09,28a166,166,0,0,1,21.32-13.28c1.86,2,3.73,3.86,5.57,5.65,12.83,12.37,32.36,25.39,40.3,30.5a53.12,53.12,0,0,0-7.69,6.52A192.47,192.47,0,0,1,146.22,354.87ZM259.9,392a192.71,192.71,0,0,1-47.44-5.91c11.09-9.74,28.69-15.65,47.44-15.65s36.35,5.91,47.43,15.65A192.68,192.68,0,0,1,259.9,392Zm54.19-7.76a54.12,54.12,0,0,0-9.3-7.63c8.77-5.71,26.6-17.83,38.59-29.39,2.21-2.13,4.44-4.42,6.66-6.8a167.07,167.07,0,0,1,23.56,14.43A192.42,192.42,0,0,1,314.09,384.25Z"
                class="cls-1"></path>
            <path 
                d="M0,485.72v-.6q0-10.4,5-17.5t17.6-14l6.08-3.31a22.33,22.33,0,0,0,8-6.68A15,15,0,0,0,39.22,435a11.74,11.74,0,0,0-3.87-9.19q-3.87-3.47-10.34-3.47t-10.32,4.42q-3.74,4.42-3.74,12.15v.85H1.56v-1.26q0-11.45,6.43-18.08t17.43-6.63q10.65,0,17.1,5.88T49,435.1A22.31,22.31,0,0,1,45.2,448q-3.77,5.5-11.65,9.62l-6.08,3.06q-8.24,4.32-12.08,8a18.06,18.06,0,0,0-5.1,8.16H49v8.84Z"></path>
            <path 
                d="M56.45,485.72v-.6q0-10.4,5-17.5t17.6-14l6.08-3.31a22.34,22.34,0,0,0,8-6.68A15,15,0,0,0,95.67,435a11.74,11.74,0,0,0-3.87-9.19q-3.87-3.47-10.35-3.47t-10.32,4.42q-3.74,4.42-3.74,12.15v.85H58v-1.26q0-11.45,6.43-18.08t17.43-6.63q10.65,0,17.1,5.88t6.45,15.42A22.32,22.32,0,0,1,101.64,448q-3.77,5.5-11.65,9.62l-6.08,3.06q-8.24,4.32-12.08,8a18.06,18.06,0,0,0-5.1,8.16h38.67v8.84Z"></path>
            <path 
                d="M113.24,450.87q0-18.18,6.28-27.62t18.38-9.44q12.15,0,18.48,9.42t6.33,27.65q0,18.13-6.3,27.52t-18.51,9.39q-12.1,0-18.38-9.39T113.24,450.87Zm9.84,0q0,14.87,3.57,21.67a12.74,12.74,0,0,0,22.52,0q3.54-6.75,3.54-21.72t-3.54-21.82a12.7,12.7,0,0,0-22.52,0Q123.08,436,123.08,450.87Z"></path>
            <path 
                d="M169.69,450.87q0-18.18,6.28-27.62t18.38-9.44q12.15,0,18.48,9.42t6.33,27.65q0,18.13-6.3,27.52t-18.51,9.39q-12.1,0-18.38-9.39T169.69,450.87Zm9.84,0q0,14.87,3.57,21.67a12.74,12.74,0,0,0,22.52,0q3.54-6.75,3.54-21.72t-3.54-21.82a12.7,12.7,0,0,0-22.52,0Q179.53,436,179.53,450.87Z"></path>
            <path 
                d="M226.13,450.87q0-18.18,6.28-27.62t18.38-9.44q12.15,0,18.48,9.42t6.33,27.65q0,18.13-6.3,27.52t-18.51,9.39q-12.1,0-18.38-9.39T226.13,450.87Zm9.84,0q0,14.87,3.57,21.67a12.74,12.74,0,0,0,22.52,0q3.54-6.75,3.54-21.72t-3.54-21.82a12.7,12.7,0,0,0-22.52,0Q236,436,236,450.87Z"></path>
            <path 
                d="M289.16,443v-11.1h10.4V443Zm0,42.69v-11.2h10.4v11.2Z"></path>
            <path 
                d="M312.76,485.72v-.6q0-10.4,5-17.5t17.6-14l6.08-3.31a22.34,22.34,0,0,0,8-6.68A15,15,0,0,0,352,435a11.74,11.74,0,0,0-3.87-9.19q-3.87-3.47-10.35-3.47t-10.32,4.42q-3.74,4.42-3.74,12.15v.85h-9.39v-1.26q0-11.45,6.43-18.08t17.43-6.63q10.65,0,17.1,5.88t6.45,15.42A22.32,22.32,0,0,1,358,448q-3.77,5.5-11.65,9.62l-6.08,3.06q-8.24,4.32-12.08,8a18.06,18.06,0,0,0-5.1,8.16h38.67v8.84Z"></path>
            <path 
                d="M369.56,450.87q0-18.18,6.28-27.62t18.38-9.44q12.15,0,18.48,9.42T419,450.87q0,18.13-6.3,27.52t-18.51,9.39q-12.1,0-18.38-9.39T369.56,450.87Zm9.84,0q0,14.87,3.57,21.67a12.74,12.74,0,0,0,22.52,0q3.54-6.75,3.54-21.72t-3.54-21.82a12.7,12.7,0,0,0-22.52,0Q379.4,436,379.4,450.87Z"></path>
            <path 
                d="M426,450.87q0-18.18,6.28-27.62t18.38-9.44q12.15,0,18.48,9.42t6.33,27.65q0,18.13-6.3,27.52t-18.51,9.39q-12.1,0-18.38-9.39T426,450.87Zm9.84,0q0,14.87,3.57,21.67a12.74,12.74,0,0,0,22.52,0q3.54-6.75,3.54-21.72t-3.54-21.82a12.7,12.7,0,0,0-22.52,0Q435.85,436,435.85,450.87Z"></path>
            <path 
                d="M481.7,467.09h9.49a13.48,13.48,0,0,0,4.64,8.71,14.58,14.58,0,0,0,9.62,3.14q7.18,0,11.58-4.37t4.39-11.5q0-7.33-4.27-11.63t-11.6-4.29a17.17,17.17,0,0,0-7.56,1.66,17,17,0,0,0-6,4.92h-8.24l5.67-37.86H527.5v8.44H496.21l-2.86,19.23a18.61,18.61,0,0,1,6.15-3.44,23.64,23.64,0,0,1,7.61-1.18q11,0,17.63,6.48t6.63,17.17q0,11.3-7,18.25t-18.43,7q-10.15,0-16.75-5.65A21.52,21.52,0,0,1,481.7,467.09Z"></path>
        </g>
    </g>
</svg>