<svg height="100%" width="100%" viewBox="0 0 480.45 480.93"
    preserveAspectRatio="none" class="ng-star-inserted">
    <defs>
        <style> .cls-1 { fill: inherit; } </style>
    </defs>
    <title>ISO 9001</title>
    <g id="katman_2" data-name="katman 2">
        <g id="Layer_1" data-name="Layer 1">
            <polygon
                points="111.23 153.16 111.23 110.54 0 110.54 0 153.16 25.52 153.16 25.52 244.32 0 244.32 0 286.93 111.23 286.93 111.23 244.32 85.71 244.32 85.71 153.16 111.23 153.16"
                class="cls-1"></polygon>
            <path
                d="M234,178.22c-6.87-2-42.25-12.12-48.37-14.12s-11.12-4.87-11.12-8.5,5.63-7.5,17-7.5c35.88,0,53.11,22.13,53.11,22.13s1.94,2.59,2.59,3.51h34.61V113.37H244.64v11c-2.84-2-23.79-15.63-56.28-15.63-42.87,0-66.75,22.25-66.75,55.5s30.13,47,38.5,50.5,41.13,12.75,55.13,17.13,19.13,7.5,19.13,9.75-6.12,8.13-23.62,8.13c-30.48,0-46.18-18-48.94-21.46v0c-.88-1.17-1.9-2.56-2.25-3.09s-1.34-1.95-2-2.88H122.94v64.46h38.86V273.28c4.52,3,27.66,17.45,55.44,17.45,31,0,70.5-13.5,70.5-55.62S240.86,180.22,234,178.22Z"
                class="cls-1"></path>
            <path
                d="M386.39,108.13c-51.68,0-94.06,25.84-94.06,91.79s46,90.66,94.29,90.66,93.83-24.48,93.83-90S434.9,108.13,386.39,108.13Zm.45,138.49c-17.68,0-29-4.08-29-46.92s8.39-47.37,29.69-47.37c12.92,0,28.56.91,28.56,46S404.53,246.62,386.85,246.62Z"
                class="cls-1"></path>
            <path
                d="M74.12,91.09a194.67,194.67,0,0,1,42.28-45,171.32,171.32,0,0,0,21.06,13.29C125.06,73.21,114,88.52,112.11,91.09h7.44C124,85.07,133.25,73,143,62.23A193,193,0,0,0,176.75,75c-3.14,6.67-5.52,12.5-6.91,16.08h6.46c1.49-3.7,3.66-8.85,6.38-14.55a215.78,215.78,0,0,0,47,6.06v8.49h6V82.62a216.89,216.89,0,0,0,46.72-5.37c2.56,5.41,4.62,10.3,6,13.84h6.46c-1.34-3.45-3.58-9-6.54-15.3a194.57,194.57,0,0,0,34.4-12.44c9.37,10.45,18.12,21.93,22.43,27.74h7.44c-1.78-2.48-12.32-17-24.29-30.5A172.3,172.3,0,0,0,351.65,46.1a194.64,194.64,0,0,1,42.28,45h7.22a198.86,198.86,0,0,0-334.25,0h7.22ZM179.43,69.52a187.88,187.88,0,0,1-32.16-11.87c1.38-1.43,2.76-2.82,4.12-4.14,13.91-13.41,36.78-28.14,41.79-31.31a74.07,74.07,0,0,0,13.23,5.63c-3.67,4.81-10.87,14.57-18.71,27C184.65,59.6,181.87,64.67,179.43,69.52Zm50.23,7.08A210.17,210.17,0,0,1,185.4,71c2.22-4.34,4.7-8.81,7.38-13,9-14.27,17.19-25,19.9-28.46a92.44,92.44,0,0,0,17,2.34V76.59Zm6,0V31.94a93.68,93.68,0,0,0,16.86-1.8c3.1,4,10.87,14.34,19.43,27.85,2.82,4.45,5.41,9.16,7.72,13.72A211.22,211.22,0,0,1,235.66,76.62Zm50-6.33A177.25,177.25,0,0,0,277,54.78C269.57,43,262.71,33.65,258.89,28.6A77,77,0,0,0,273,23.14c7,4.51,27.48,18,40.31,30.37,1.7,1.64,3.43,3.4,5.15,5.22A189.37,189.37,0,0,1,285.68,70.29Zm60.94-27.94A167.34,167.34,0,0,1,324.15,56c-2.21-2.37-4.45-4.67-6.65-6.8-12-11.57-29.87-23.71-38.62-29.42A54.94,54.94,0,0,0,287,13.39,192.4,192.4,0,0,1,346.62,42.35ZM234,6a192.76,192.76,0,0,1,46,5.55C268.82,20.64,252.05,26,234,26s-34.83-5.31-46-14.42A192.76,192.76,0,0,1,234,6Zm-53,7.39a53.86,53.86,0,0,0,6.48,5.29c-7.93,5.1-27.47,18.13-40.3,30.5-1.85,1.78-3.71,3.68-5.57,5.64a166.57,166.57,0,0,1-20.24-12.48A192.37,192.37,0,0,1,181.06,13.39Z"
                class="cls-1"></path>
            <path
                d="M393.94,306.92a194.66,194.66,0,0,1-41.24,44.18,171.92,171.92,0,0,0-24.36-15.27c10.38-11.71,19.69-24.19,23.13-28.91H344c-4.61,6.15-12.67,16.58-21.24,26.15a194.3,194.3,0,0,0-34.4-12.45c2.54-5.44,4.55-10.26,5.91-13.7h-6.48c-1.37,3.35-3.2,7.61-5.4,12.25a217,217,0,0,0-46.72-5.37v-6.88h-6v6.91a215.87,215.87,0,0,0-47,6c-2.34-4.92-4.29-9.43-5.73-13h-6.48c1.43,3.6,3.57,8.73,6.28,14.49A192.76,192.76,0,0,0,143,334.18c-8.94-9.86-17.46-20.87-22.25-27.26h-7.47c3.56,4.88,13.38,18.06,24.2,30.11a171.29,171.29,0,0,0-22.11,14.08,194.61,194.61,0,0,1-41.24-44.18H66.9a198.86,198.86,0,0,0,334.24,0h-7.21ZM285.68,326.13a189.09,189.09,0,0,1,32.8,11.57c-1.73,1.82-3.45,3.58-5.16,5.23-12.79,12.33-33.17,25.78-40.26,30.33a76.11,76.11,0,0,0-14.14-5.47c3.82-5.05,10.67-14.42,18.09-26.14A177,177,0,0,0,285.68,326.13Zm-50-6.33a211.35,211.35,0,0,1,44,4.9c-2.31,4.56-4.91,9.27-7.73,13.72-8.55,13.5-16.3,23.81-19.42,27.84a94.42,94.42,0,0,0-16.87-1.78V319.8Zm-6,0v44.72a92.93,92.93,0,0,0-17,2.32c-2.73-3.51-10.86-14.19-19.88-28.44-2.68-4.23-5.16-8.7-7.38-13A210.24,210.24,0,0,1,229.66,319.83Zm-50.23,7.07c2.45,4.85,5.23,9.92,8.28,14.74,7.84,12.38,15,22.13,18.71,26.95a73.31,73.31,0,0,0-13.23,5.63c-5-3.18-27.89-17.9-41.79-31.3-1.37-1.32-2.74-2.71-4.13-4.14A187.48,187.48,0,0,1,179.43,326.9Zm-59.09,28a166,166,0,0,1,21.32-13.28c1.86,2,3.73,3.86,5.57,5.65,12.83,12.37,32.36,25.39,40.3,30.5a53.12,53.12,0,0,0-7.69,6.52A192.47,192.47,0,0,1,120.34,354.87ZM234,392a192.71,192.71,0,0,1-47.44-5.91c11.09-9.74,28.69-15.65,47.44-15.65s36.35,5.91,47.43,15.65A192.68,192.68,0,0,1,234,392Zm54.19-7.76a54.12,54.12,0,0,0-9.3-7.63c8.77-5.71,26.6-17.83,38.59-29.39,2.21-2.13,4.44-4.42,6.66-6.8a167.07,167.07,0,0,1,23.56,14.43A192.42,192.42,0,0,1,288.21,384.25Z"
                class="cls-1"></path>
            <path
                d="M11.44,461.64q.4,7.45,5.75,10.29a12.72,12.72,0,0,0,6.2,1.5,13.92,13.92,0,0,0,11-5.37q4.55-5.37,6.45-21.81a16.67,16.67,0,0,1-7.42,6.67,23.59,23.59,0,0,1-9.52,1.92q-10.34,0-16.36-6.44t-6-16.57a26.52,26.52,0,0,1,5.95-17.12q5.95-7.39,17.54-7.39,15.64,0,21.59,14.08,3.3,7.74,3.3,19.38a63.83,63.83,0,0,1-3.95,23.27q-6.55,16.88-22.19,16.88-10.49,0-15.94-5.5a18.79,18.79,0,0,1-5.45-13.79h9.09Zm23.41-18.21q4.42-3.52,4.42-12.3,0-7.88-4-11.75a13.91,13.91,0,0,0-10.12-3.87,13.22,13.22,0,0,0-10.47,4.42q-3.87,4.41-3.87,11.8,0,7,3.4,11.1T25.09,447A15.33,15.33,0,0,0,34.85,443.43Z"
                class="cls-1"></path>
            <path
                d="M102.54,418.87q4.8,8.84,4.8,24.24,0,14.59-4.35,24.14-6.3,13.69-20.59,13.69-12.89,0-19.19-11.19Q58,460.39,58,444.65q0-12.19,3.15-20.94,5.9-16.29,21.34-16.29Q96.34,407.42,102.54,418.87Zm-9.05,47.67q4.15-6.2,4.15-23.08,0-12.19-3-20.06T83,415.52q-8,0-11.64,7.47t-3.68,22q0,10.94,2.35,17.59,3.6,10.14,12.31,10.14Q89.33,472.73,93.49,466.54Z"
                class="cls-1"></path>
            <path
                d="M159.45,418.87q4.8,8.84,4.8,24.24,0,14.59-4.35,24.14-6.3,13.69-20.59,13.69-12.89,0-19.19-11.19-5.25-9.34-5.25-25.08,0-12.19,3.15-20.94,5.89-16.29,21.34-16.29Q153.26,407.42,159.45,418.87Zm-9.05,47.67q4.15-6.2,4.15-23.08,0-12.19-3-20.06t-11.66-7.87q-8,0-11.64,7.47t-3.68,22q0,10.94,2.35,17.59,3.6,10.14,12.31,10.14Q146.24,472.73,150.4,466.54Z"
                class="cls-1"></path>
            <path
                d="M178.39,428.31v-6.9q9.74-.95,13.59-3.17t5.75-10.52h7.1V479h-9.59V428.31H178.39Z"
                class="cls-1"></path>
            <path
                d="M236.85,426.16H247.3v10.89H236.85Zm0,41.92H247.3V479H236.85Z" class="cls-1"></path>
            <path
                d="M261,462.89q3.32-6.84,13-12.44l9.59-5.55a45.08,45.08,0,0,0,9-6.4,13.18,13.18,0,0,0,4.1-9.51q0-6.26-3.75-9.94t-10-3.68q-9.24,0-12.79,7-1.9,3.76-2.1,10.42h-9.14q.15-9.34,3.45-15.24,5.85-10.39,20.64-10.39,12.29,0,18,6.65a22.24,22.24,0,0,1,5.67,14.79,20.11,20.11,0,0,1-6,14.69q-3.5,3.55-12.54,8.6l-6.85,3.8a44.38,44.38,0,0,0-7.69,5.15,18.74,18.74,0,0,0-6.3,9.64h39.08V479H257.14A41.72,41.72,0,0,1,261,462.89Z"
                class="cls-1"></path>
            <path
                d="M358.63,418.87q4.8,8.84,4.8,24.24,0,14.59-4.35,24.14-6.3,13.69-20.59,13.69-12.89,0-19.19-11.19-5.25-9.34-5.25-25.08,0-12.19,3.15-20.94,5.9-16.29,21.34-16.29Q352.43,407.42,358.63,418.87Zm-9.05,47.67q4.15-6.2,4.15-23.08,0-12.19-3-20.06t-11.66-7.87q-8,0-11.64,7.47t-3.68,22q0,10.94,2.35,17.59,3.6,10.14,12.31,10.14Q345.42,472.73,349.57,466.54Z"
                class="cls-1"></path>
            <path
                d="M377.56,428.31v-6.9q9.74-.95,13.59-3.17t5.75-10.52H404V479h-9.6V428.31H377.56Z"
                class="cls-1"></path>
            <path
                d="M437.33,460.74q.9,7.7,7.15,10.64a17.25,17.25,0,0,0,7.4,1.5q8,0,11.84-5.1a18.31,18.31,0,0,0,3.85-11.29q0-7.5-4.57-11.59a15.87,15.87,0,0,0-11-4.1,16.52,16.52,0,0,0-8,1.8,17.07,17.07,0,0,0-5.67,5l-7.8-.45L436,408.63H473.2v8.69H442.77l-3,19.89a22.4,22.4,0,0,1,4.75-2.85,24.1,24.1,0,0,1,9.24-1.65,23.65,23.65,0,0,1,16.69,6.35,21,21,0,0,1,6.85,16.09A27.61,27.61,0,0,1,471,473q-6.27,7.75-20,7.74a25.5,25.5,0,0,1-15.46-4.92q-6.72-4.92-7.52-15.11h9.34Z"
                class="cls-1"></path>
        </g>
    </g>
</svg>